# xmcd
#
# Track frame offsets:
#	150
#	18926
#	35880
#	61463
#	77361
#	98406
#	135589
#	149887
#	171679
#	192530
#
# Disc length: 2719 seconds
#
# Revision: 1
# Processed by: cddbd v1.5.2PL0 Copyright (c) Steve Scherf et al.
# Submitted via: audiograbber 1.83.01
#
DISCID=900a9d0a
DTITLE=Bob Weir and Friends - 78-11-17 Rambler Room, Loyola College, Chicago IL
DYEAR=1900
DGENRE=
TTITLE0=Whinin' Boy Blues
TTITLE1=Tom Dooley
TTITLE2=This Time Forever
TTITLE3=Deep Elem Blues
TTITLE4=KC Moan
TTITLE5=Knockin' On Heaven's Door
TTITLE6=Big Boy Pete
TTITLE7=Jack-A-Roe
TTITLE8=Dark Hollow
TTITLE9=Oh Boy
EXTD=
EXTT0=
EXTT1=
EXTT2=
EXTT3=
EXTT4=
EXTT5=
EXTT6=
EXTT7=
EXTT8=
EXTT9=
PLAYORDER=
